<svg xmlns="http://www.w3.org/2000/svg" viewBox="0 0 40 40" width="40" height="40" fill="none">
  <defs>
    <linearGradient id="duck-beak-grad" x1="26" y1="18" x2="35" y2="24" gradientUnits="userSpaceOnUse">
      <stop offset="0%" stop-color="#fb923c" />
      <stop offset="100%" stop-color="#ea580c" />
    </linearGradient>
    <linearGradient id="duck-phone-grad" x1="9" y1="5" x2="31" y2="23" gradientUnits="userSpaceOnUse">
      <stop offset="0%" stop-color="#fbbf24" />
      <stop offset="100%" stop-color="#d97706" />
    </linearGradient>
  </defs>
  <!-- Duck Beak -->
  <path
    d="M26 18C29 18 34 19.5 35 22C33.5 24.5 28 24 26 23.5V18Z"
    fill="url(#duck-beak-grad)"
  />
  <!-- Duck Head & Neck -->
  <path
    d="M12 28C12 20 16 12 23 12C26.5 12 28.5 14.5 28.5 18C28.5 23 23 25 21 28C19.5 30 16 32 12 28Z"
    fill="#ffffff"
  />
  <!-- DJ Headphone Band -->
  <path
    d="M13 8C18 5 27 5 31 10"
    stroke="url(#duck-phone-grad)"
    stroke-width="3.5"
    stroke-linecap="round"
  />
  <!-- DJ Ear Cup -->
  <rect
    x="9"
    y="13"
    width="6"
    height="10"
    rx="3"
    fill="url(#duck-phone-grad)"
  />
  <!-- Duck Eye -->
  <circle cx="21" cy="16" r="2" fill="#09090b" />
</svg>